<svg t="1725109910867" class="icon" viewBox="0 0 1024 1024" version="1.1" xmlns="http://www.w3.org/2000/svg" p-id="10094" width="200" height="200"><path d="M256 122.88h512v768H256z" fill="#EDD388" p-id="10095"></path><path d="M390.583 785.14c0 50.48 0.366 85.988 1.097 106.526 0.731 20.538 1.097 32.045 1.097 34.52 0 11.877-8.411 20.908-25.234 27.095-16.823 6.186-26.941 9.279-30.354 9.279-6.34 0-9.509-4.949-9.509-14.847l4.389-77.946c1.462-35.633 2.194-69.286 2.194-100.96v-380.08c0-39.097-0.975-79.926-2.926-122.487l79.726 34.89c5.851 1.98 8.777 4.454 8.777 7.424 0 2.97-2.926 6.186-8.777 9.65l-20.48 11.135v455.8zM445.128 512c19.523 7.837 35.548 16.222 48.078 25.156C505.736 546.09 512 556.042 512 567.014c0 10.971-2.258 19.905-6.775 26.802-4.516 6.896-10.417 10.344-17.701 10.344-3.788 0-6.556-1.254-8.304-3.762-1.749-2.507-3.206-6.582-4.371-12.225-5.537-26.958-17.046-50.155-34.529-69.59l4.808-6.583z" fill="#333333" p-id="10096"></path></svg>